<svg xmlns="http://www.w3.org/2000/svg" xmlns:xlink="http://www.w3.org/1999/xlink" version="1.1" width="256" height="256" viewBox="0 0 256 256" xml:space="preserve">

<defs>
</defs>
<g style="stroke: none; stroke-width: 0; stroke-dasharray: none; stroke-linecap: butt; stroke-linejoin: miter; stroke-miterlimit: 10; fill: none; fill-rule: nonzero; opacity: 1;" transform="translate(1.4065934065934016 1.4065934065934016) scale(2.81 2.81)" >
	<ellipse cx="31.028" cy="25.635" rx="8.568" ry="25.315" style="stroke: none; stroke-width: 1; stroke-dasharray: none; stroke-linecap: butt; stroke-linejoin: miter; stroke-miterlimit: 10; fill: rgb(227,227,244); fill-rule: nonzero; opacity: 1;" transform=" matrix(0.9918 -0.1281 0.1281 0.9918 -3.0286 4.1874) "/>
	<path d="M 27.784 0.524 c -4.693 0.606 -7.045 12.339 -5.254 26.204 s 7.049 24.615 11.742 24.008 C 26.445 34.732 24.282 17.994 27.784 0.524 z" style="stroke: none; stroke-width: 1; stroke-dasharray: none; stroke-linecap: butt; stroke-linejoin: miter; stroke-miterlimit: 10; fill: rgb(214,214,234); fill-rule: nonzero; opacity: 1;" transform=" matrix(1 0 0 1 0 0) " stroke-linecap="round" />
	<path d="M 33.894 51.262 c -2.368 0 -4.847 -2.419 -7.029 -6.882 c -2.241 -4.582 -3.956 -10.828 -4.83 -17.587 C 20.18 12.436 22.677 0.68 27.721 0.028 c 2.493 -0.316 5.152 2.11 7.472 6.854 c 2.241 4.583 3.956 10.828 4.83 17.587 c 1.854 14.356 -0.643 26.112 -5.686 26.765 C 34.189 51.252 34.042 51.262 33.894 51.262 z M 28.16 1 c -0.104 0 -0.208 0.006 -0.311 0.02 c -4.337 0.56 -6.545 12.304 -4.822 25.644 l 0 0 c 0.859 6.654 2.542 12.789 4.736 17.276 c 2.085 4.264 4.427 6.572 6.446 6.301 c 4.337 -0.561 6.545 -12.304 4.822 -25.644 c -0.859 -6.654 -2.542 -12.789 -4.736 -17.276 C 32.315 3.275 30.099 1 28.16 1 z" style="stroke: none; stroke-width: 1; stroke-dasharray: none; stroke-linecap: butt; stroke-linejoin: miter; stroke-miterlimit: 10; fill: rgb(40,39,44); fill-rule: nonzero; opacity: 1;" transform=" matrix(1 0 0 1 0 0) " stroke-linecap="round" />
	<ellipse cx="58.035" cy="25.628" rx="25.315" ry="8.568" style="stroke: none; stroke-width: 1; stroke-dasharray: none; stroke-linecap: butt; stroke-linejoin: miter; stroke-miterlimit: 10; fill: rgb(227,227,244); fill-rule: nonzero; opacity: 1;" transform=" matrix(0.1561 -0.9877 0.9877 0.1561 23.6564 78.9501) "/>
	<path d="M 61.983 0.626 c -4.674 -0.739 -10.233 9.858 -12.415 23.667 c -2.182 13.81 -0.162 25.604 4.512 26.342 C 51.072 33.074 53.706 16.404 61.983 0.626 z" style="stroke: none; stroke-width: 1; stroke-dasharray: none; stroke-linecap: butt; stroke-linejoin: miter; stroke-miterlimit: 10; fill: rgb(214,214,234); fill-rule: nonzero; opacity: 1;" transform=" matrix(1 0 0 1 0 0) " stroke-linecap="round" />
	<path d="M 54.536 51.172 c -0.179 0 -0.356 -0.015 -0.534 -0.042 c -2.489 -0.394 -4.351 -3.476 -5.242 -8.679 c -0.861 -5.028 -0.75 -11.504 0.314 -18.235 l 0 0 c 2.26 -14.297 7.939 -24.888 12.987 -24.083 c 5.022 0.794 7.188 12.616 4.928 26.915 C 64.809 40.839 59.422 51.172 54.536 51.172 z M 50.062 24.372 c -1.047 6.626 -1.16 12.987 -0.316 17.91 c 0.802 4.679 2.409 7.543 4.412 7.859 c 4.318 0.713 9.744 -9.965 11.843 -23.251 c 2.1 -13.286 0.225 -25.088 -4.096 -25.771 C 57.596 0.457 52.162 11.085 50.062 24.372 L 50.062 24.372 z" style="stroke: none; stroke-width: 1; stroke-dasharray: none; stroke-linecap: butt; stroke-linejoin: miter; stroke-miterlimit: 10; fill: rgb(40,39,44); fill-rule: nonzero; opacity: 1;" transform=" matrix(1 0 0 1 0 0) " stroke-linecap="round" />
	<circle cx="44.995000000000005" cy="64.185" r="25.315" style="stroke: none; stroke-width: 1; stroke-dasharray: none; stroke-linecap: butt; stroke-linejoin: miter; stroke-miterlimit: 10; fill: rgb(227,227,244); fill-rule: nonzero; opacity: 1;" transform="  matrix(1 0 0 1 0 0) "/>
	<path d="M 45 38.87 c -13.981 0 -25.315 11.334 -25.315 25.315 S 31.019 89.5 45 89.5 C 28.123 72.623 28.123 55.747 45 38.87 z" style="stroke: none; stroke-width: 1; stroke-dasharray: none; stroke-linecap: butt; stroke-linejoin: miter; stroke-miterlimit: 10; fill: rgb(214,214,234); fill-rule: nonzero; opacity: 1;" transform=" matrix(1 0 0 1 0 0) " stroke-linecap="round" />
	<path d="M 45 90 c -14.234 0 -25.815 -11.581 -25.815 -25.815 S 30.766 38.37 45 38.37 c 14.235 0 25.815 11.58 25.815 25.814 S 59.235 90 45 90 z M 45 39.37 c -13.683 0 -24.815 11.132 -24.815 24.814 C 20.185 77.868 31.317 89 45 89 s 24.815 -11.132 24.815 -24.815 C 69.815 50.502 58.683 39.37 45 39.37 z" style="stroke: none; stroke-width: 1; stroke-dasharray: none; stroke-linecap: butt; stroke-linejoin: miter; stroke-miterlimit: 10; fill: rgb(40,39,44); fill-rule: nonzero; opacity: 1;" transform=" matrix(1 0 0 1 0 0) " stroke-linecap="round" />
	<circle cx="33.172" cy="57.802" r="2.602" style="stroke: none; stroke-width: 1; stroke-dasharray: none; stroke-linecap: butt; stroke-linejoin: miter; stroke-miterlimit: 10; fill: rgb(40,39,44); fill-rule: nonzero; opacity: 1;" transform="  matrix(1 0 0 1 0 0) "/>
	<path d="M 33.176 60.906 c -1.71 0 -3.102 -1.392 -3.102 -3.103 c 0 -1.71 1.391 -3.102 3.102 -3.102 c 1.71 0 3.102 1.392 3.102 3.102 C 36.278 59.515 34.886 60.906 33.176 60.906 z M 33.176 55.702 c -1.159 0 -2.102 0.942 -2.102 2.102 s 0.943 2.103 2.102 2.103 c 1.159 0 2.102 -0.943 2.102 -2.103 S 34.335 55.702 33.176 55.702 z" style="stroke: none; stroke-width: 1; stroke-dasharray: none; stroke-linecap: butt; stroke-linejoin: miter; stroke-miterlimit: 10; fill: rgb(40,39,44); fill-rule: nonzero; opacity: 1;" transform=" matrix(1 0 0 1 0 0) " stroke-linecap="round" />
	<circle cx="54.552" cy="57.802" r="2.602" style="stroke: none; stroke-width: 1; stroke-dasharray: none; stroke-linecap: butt; stroke-linejoin: miter; stroke-miterlimit: 10; fill: rgb(40,39,44); fill-rule: nonzero; opacity: 1;" transform="  matrix(1 0 0 1 0 0) "/>
	<path d="M 54.553 60.906 c -1.71 0 -3.102 -1.392 -3.102 -3.103 c 0 -1.71 1.392 -3.102 3.102 -3.102 s 3.102 1.392 3.102 3.102 C 57.655 59.515 56.263 60.906 54.553 60.906 z M 54.553 55.702 c -1.159 0 -2.102 0.942 -2.102 2.102 s 0.942 2.103 2.102 2.103 s 2.102 -0.943 2.102 -2.103 S 55.712 55.702 54.553 55.702 z" style="stroke: none; stroke-width: 1; stroke-dasharray: none; stroke-linecap: butt; stroke-linejoin: miter; stroke-miterlimit: 10; fill: rgb(40,39,44); fill-rule: nonzero; opacity: 1;" transform=" matrix(1 0 0 1 0 0) " stroke-linecap="round" />
	<path d="M 47.802 67.015 c 0 1.864 -1.511 3.375 -3.375 3.375 c -1.864 0 -3.375 -1.511 -3.375 -3.375 c 0 -1.864 1.511 0 3.375 0 C 46.291 67.015 47.802 65.151 47.802 67.015 z" style="stroke: none; stroke-width: 1; stroke-dasharray: none; stroke-linecap: butt; stroke-linejoin: miter; stroke-miterlimit: 10; fill: rgb(40,39,44); fill-rule: nonzero; opacity: 1;" transform=" matrix(1 0 0 1 0 0) " stroke-linecap="round" />
	<path d="M 44.427 70.891 c -2.137 0 -3.875 -1.738 -3.875 -3.875 c 0 -0.379 0.047 -0.914 0.458 -1.186 c 0.464 -0.306 1.009 -0.072 1.64 0.197 c 0.536 0.229 1.143 0.488 1.777 0.488 s 1.242 -0.26 1.777 -0.488 c 0.63 -0.27 1.176 -0.503 1.64 -0.197 c 0.411 0.271 0.458 0.807 0.458 1.186 C 48.302 69.152 46.564 70.891 44.427 70.891 z M 41.579 66.693 c -0.013 0.057 -0.027 0.156 -0.027 0.322 c 0 1.585 1.29 2.875 2.875 2.875 s 2.875 -1.29 2.875 -2.875 c 0 -0.165 -0.014 -0.266 -0.027 -0.322 c -0.156 0.03 -0.452 0.157 -0.678 0.254 c -0.593 0.253 -1.331 0.568 -2.17 0.568 s -1.577 -0.315 -2.17 -0.568 C 42.031 66.85 41.735 66.724 41.579 66.693 z" style="stroke: none; stroke-width: 1; stroke-dasharray: none; stroke-linecap: butt; stroke-linejoin: miter; stroke-miterlimit: 10; fill: rgb(40,39,44); fill-rule: nonzero; opacity: 1;" transform=" matrix(1 0 0 1 0 0) " stroke-linecap="round" />
	<path d="M 44.614 76.072 c -0.064 0 -0.129 -0.001 -0.194 -0.002 l -0.489 -0.011 v -6.79 h 1 v 5.796 c 2.088 -0.091 4.023 -1.074 5.899 -2.995 l 0.715 0.699 C 49.376 74.99 47.107 76.072 44.614 76.072 z" style="stroke: none; stroke-width: 1; stroke-dasharray: none; stroke-linecap: butt; stroke-linejoin: miter; stroke-miterlimit: 10; fill: rgb(40,39,44); fill-rule: nonzero; opacity: 1;" transform=" matrix(1 0 0 1 0 0) " stroke-linecap="round" />
	<path d="M 44.261 76.072 c -2.492 0 -4.761 -1.082 -6.931 -3.303 l 0.715 -0.699 c 2.022 2.07 4.128 3.046 6.388 3 l 0.022 1 C 44.39 76.071 44.325 76.072 44.261 76.072 z" style="stroke: none; stroke-width: 1; stroke-dasharray: none; stroke-linecap: butt; stroke-linejoin: miter; stroke-miterlimit: 10; fill: rgb(40,39,44); fill-rule: nonzero; opacity: 1;" transform=" matrix(1 0 0 1 0 0) " stroke-linecap="round" />
</g>
</svg>